<?xml version="1.0" standalone="no"?>
<!DOCTYPE svg PUBLIC "-//W3C//DTD SVG 20010904//EN"
 "http://www.w3.org/TR/2001/REC-SVG-20010904/DTD/svg10.dtd">
<svg version="1.0" xmlns="http://www.w3.org/2000/svg"
 width="260.000000pt" height="260.000000pt" viewBox="0 0 260.000000 260.000000"
 preserveAspectRatio="xMidYMid meet">
<metadata>
Created by potrace 1.11, written by Peter Selinger 2001-2013
</metadata>
<g transform="translate(0.000000,260.000000) scale(0.100000,-0.100000)"
fill="#000000" stroke="none">
<path d="M1169 2596 c-2 -2 -24 -6 -49 -10 -258 -33 -516 -156 -705 -336 -218
-206 -349 -454 -399 -750 -14 -83 -15 -344 -2 -400 4 -14 9 -40 12 -58 7 -44
47 -174 72 -237 70 -177 206 -364 358 -494 57 -48 160 -121 172 -121 6 0 12
-3 14 -8 6 -13 171 -90 249 -115 147 -48 233 -61 409 -61 226 0 374 33 565
125 206 99 368 240 523 454 81 113 168 340 196 516 14 82 15 320 2 400 -10 63
-57 234 -67 244 -5 5 -9 16 -9 25 0 40 -122 251 -205 355 -69 86 -220 222
-285 255 -14 7 -27 16 -30 21 -3 4 -50 30 -105 57 -123 62 -272 111 -390 129
-38 5 -321 13 -326 9z"/>
</g>
</svg>
